<svg xmlns="http://www.w3.org/2000/svg" viewBox="0 0 37.21 23.64"><title>behance_icon</title><g id="Layer_2" data-name="Layer 2"><g id="Layer_1-2" data-name="Layer 1"><path d="M37,17.62a.27.27,0,0,1,.47.26,10.29,10.29,0,0,1-9,6,8.15,8.15,0,0,1-7.57-5.56c-1.19-4.06.56-11.85,5.62-12.07a7.75,7.75,0,0,1,8,1.52,7.69,7.69,0,0,1,2.2,3.91c.29,1.2-.08,2.68.44,3.81,0,0,0,0,0,0a.14.14,0,0,1,0,.22.25.25,0,0,1-.35.07,28.73,28.73,0,0,1-3.23.34,23.6,23.6,0,0,1-3.15-.06c-1.37-.12-2.79,0-4.15,0h-.27a2.58,2.58,0,0,1-.39,0c.52,1.39,1,2.59,2.61,3.08s2.76-.34,4-1.06a.18.18,0,0,1,.12-.26,7.64,7.64,0,0,1,1.27-.2c.43,0,.86-.05,1.28-.08a5.64,5.64,0,0,1,2.13.1S37,17.63,37,17.62Zm-.52-2.24a7.27,7.27,0,0,1,0-1.3,11.13,11.13,0,0,0-.69-3.42c-1.55-4-5.38-4.7-9.17-4.07-4.12,1-6,6.31-5.51,10.23.47,3.74,4.42,6.57,8.06,6.3a9.56,9.56,0,0,0,7.55-5c-.65.09-1.34,0-2,.06a8.69,8.69,0,0,1-2.28,0,4.19,4.19,0,0,1-4.81,1.44c-1.45-.51-2.95-2.12-2.55-3.75l-.12-.08a.08.08,0,0,1,.06-.14h.12a.15.15,0,0,1,.25,0l.38,0c1.07-.63,2.94-.27,4-.18a20.11,20.11,0,0,0,3.88,0A11.85,11.85,0,0,1,36.44,15.38Z" transform="translate(-0.25 -0.25)"/><path d="M36.39,14.08a7.27,7.27,0,0,0,0,1.3,11.85,11.85,0,0,0-2.84.11,20.11,20.11,0,0,1-3.88,0c-1.08-.09-2.95-.45-4,.18l-.38,0a.15.15,0,0,0-.25,0H25a.08.08,0,0,0-.06.14l.12.08c-.4,1.63,1.1,3.24,2.55,3.75a4.19,4.19,0,0,0,4.81-1.44,8.69,8.69,0,0,0,2.28,0c.64,0,1.33,0,2-.06a9.56,9.56,0,0,1-7.55,5c-3.64.27-7.59-2.56-8.06-6.3-.49-3.92,1.39-9.26,5.51-10.23,3.79-.63,7.62,0,9.17,4.07A11.13,11.13,0,0,1,36.39,14.08ZM32.5,13a.27.27,0,0,0,.2-.24c-.48-4.28-8.05-3.64-7.65-.15a.33.33,0,0,0,.05.62c1.4.29,2.72-.14,4.12-.11A9.74,9.74,0,0,0,32.5,13Z" transform="translate(-0.25 -0.25)"/><path d="M33.51,1.46c.11,0,.26,0,.25.18,0,.87-.19,1.72-.18,2.59a.28.28,0,0,1-.28.26,70.91,70.91,0,0,1-9.22.12.27.27,0,0,1-.26-.25A6.2,6.2,0,0,1,23.88,2a.59.59,0,0,1,.28-.65.09.09,0,0,1,.1,0h.06A35.35,35.35,0,0,0,33.51,1.46Zm-.37,1.73A2,2,0,0,0,33,1.93l-.59.1a18.61,18.61,0,0,0-2.56.24,35.22,35.22,0,0,1-5.62-.37,5.35,5.35,0,0,0,.17.69.12.12,0,0,1-.13.15,3.93,3.93,0,0,0,0,.46c.09.56-.16.59.38,1,.31.22,1.27.06,1.63.06,1,0,2,0,3,0,.79,0,2.63.23,3.3-.18S33,3.61,33.14,3.19Z" transform="translate(-0.25 -0.25)"/><path d="M33,1.93a2,2,0,0,1,.1,1.26c-.12.42.06.49-.47.8s-2.51.15-3.3.18c-1,0-2,.07-3,0-.36,0-1.32.16-1.63-.06-.54-.37-.29-.4-.38-1a3.93,3.93,0,0,1,0-.46.12.12,0,0,0,.13-.15,5.35,5.35,0,0,1-.17-.69,35.22,35.22,0,0,0,5.62.37A18.61,18.61,0,0,1,32.45,2Z" transform="translate(-0.25 -0.25)"/><path d="M32.7,12.73a.27.27,0,0,1-.2.24,9.74,9.74,0,0,1-3.28.12c-1.4,0-2.72.4-4.12.11a.33.33,0,0,1-.05-.62C24.65,9.09,32.22,8.45,32.7,12.73Zm-.59-.48a1.54,1.54,0,0,0-.29-.74,2.68,2.68,0,0,0-1.18-1.08,3.36,3.36,0,0,0-5,2.15,26.14,26.14,0,0,0,3.06-.16c.79,0,1.56.16,2.34.2C31.5,12.64,32,12.84,32.11,12.25Z" transform="translate(-0.25 -0.25)"/><path d="M15.37,11c3.42.81,4.05,3.91,3.24,7a5.61,5.61,0,0,1-4.13,4.15c-2.56.78-5.46.53-8.1.45-1.64-.05-3.45-.32-5,.29-.57-1.59-.18-3.92-.05-5.56.17-2.27.1-4.52.15-6.79,0-2,0-4,0-6.06a15.81,15.81,0,0,0-.05-3.3c4.06.32,8.2-.53,12.24.26,1.88.36,3.63,1.18,4.27,3.13a5.46,5.46,0,0,1-2,6,3.38,3.38,0,0,0-.45,0C15.16,10.51,15.05,10.93,15.37,11Zm-1,5.17c.34-4.57-5.73-3.23-8.5-3h0l-.23,0a.13.13,0,0,0,0,.25h0a.66.66,0,0,0-.18.24,3.83,3.83,0,0,0-.16,1.47c0,.94,0,1.89,0,2.84a.37.37,0,0,0,0,.65l0,0v0A.4.4,0,0,0,6,19a11.94,11.94,0,0,0,5,0C12.66,18.8,14.19,18.07,14.34,16.17Zm-1.73-7a2.51,2.51,0,0,0,1.12-3.7c-1-1.41-3.06-1.42-4.57-1.33A24.25,24.25,0,0,0,6,4.46a.31.31,0,0,0-.15.06.23.23,0,0,0-.16-.07.25.25,0,0,0-.23.32l-.06.07A2.46,2.46,0,0,0,5.18,6c0,1,.05,1.91.06,2.87,0,0,0,0,0,0-.17.23.09.59.41.53C7.9,9,10.47,10.16,12.61,9.17Z" transform="translate(-0.25 -0.25)"/><path d="M16.74,10.56c3.94.8,3.4,7.35,1.32,10-3.9,4.92-11.5,2.09-16.78,3A.34.34,0,0,1,1,23.4a.44.44,0,0,1-.43-.29C0,21.68.35,19.68.43,18.19c.13-2.12.18-4.2.17-6.32C.59,8.16.29,4.31.92.65a.16.16,0,0,1,.28,0,56.26,56.26,0,0,1,11-.15C14,.63,16,1,17.34,2.25,19.59,4.39,19.33,8.86,16.74,10.56ZM18.61,18c.81-3.06.18-6.16-3.24-7-.32-.07-.21-.49.08-.51a3.38,3.38,0,0,1,.45,0,5.46,5.46,0,0,0,2-5.95c-.64-1.95-2.39-2.77-4.27-3.13-4-.79-8.18.06-12.24-.26a15.81,15.81,0,0,1,.05,3.3c.05,2,.07,4,0,6.06-.05,2.27,0,4.52-.15,6.79-.13,1.64-.52,4,.05,5.56,1.56-.61,3.37-.34,5-.29,2.64.08,5.54.33,8.1-.45A5.61,5.61,0,0,0,18.61,18Z" transform="translate(-0.25 -0.25)"/><path d="M5.84,13.22c2.77-.28,8.84-1.62,8.5,3C14.19,18.07,12.66,18.8,11,19a11.94,11.94,0,0,1-5,0,.4.4,0,0,1-.68-.24v0l0,0a.37.37,0,0,1,0-.65c-.06-.95-.07-1.9,0-2.84a3.83,3.83,0,0,1,.16-1.47.66.66,0,0,1,.18-.24h0a.13.13,0,0,1,0-.25l.23,0Zm.28,5c2.64.61,8.71.48,7.24-3.24-1.06-2.7-5.09-1.1-7.42-1.37a1.52,1.52,0,0,1,.12.36,13.7,13.7,0,0,1,0,1.57C6.08,16.38,6.15,17.29,6.12,18.18Z" transform="translate(-0.25 -0.25)"/><path d="M13.73,5.47a2.51,2.51,0,0,1-1.12,3.7c-2.14,1-4.71-.13-6.94.29-.32.06-.58-.3-.41-.53,0,0,0,0,0,0,0-1-.07-1.91-.06-2.87a2.46,2.46,0,0,1,.18-1.17l.06-.07a.25.25,0,0,1,.23-.32.23.23,0,0,1,.16.07A.31.31,0,0,1,6,4.46a24.25,24.25,0,0,1,3.2-.32C10.67,4.05,12.77,4.06,13.73,5.47ZM12,8.68a1.88,1.88,0,0,0,.44-3.5c-1.36-.7-3.28-.38-4.74-.25a6.51,6.51,0,0,1-1.9.13l0,.14c0,.4,0,.79,0,1.19,0,.75.07,1.5.07,2.25a12.22,12.22,0,0,1,3.62.09A7.37,7.37,0,0,0,12,8.68Z" transform="translate(-0.25 -0.25)"/></g></g></svg>