<svg xmlns="http://www.w3.org/2000/svg" viewBox="0 0 17.91 36.72"><title>fb_icon</title><g id="Layer_2" data-name="Layer 2"><g id="Layer_1-2" data-name="Layer 1"><path d="M1.25,15.33a7.91,7.91,0,0,0-.05,2.06c.36,0,.78.05,1.11,0,.67,0,1.34-.09,2-.07a.39.39,0,0,1,.33.18c.13-.09.39-.05.42.13.48,2.95.11,6.07,0,9.05C5,29.9,5,33.1,5,36.28a6.13,6.13,0,0,1,2.6-.17c1,.09,2.12-.08,3.16,0A86,86,0,0,0,10.7,26c-.06-2.31-.59-5.85.55-8.06a.28.28,0,0,1,.17-.43c1.68-.25,3.37.41,5-.1h.06a23,23,0,0,1,0-2.75,6.73,6.73,0,0,1,.3-2,19,19,0,0,1-2.13.1,10,10,0,0,1-2.89-.29.43.43,0,0,1-.61-.35c-.09-1.77-.73-4.15.65-5.62a4.65,4.65,0,0,1,4.7-.64c.34-1.36.1-3,.85-4.26-3.08-.38-7.6-1-10.07,1.07S4.81,9.17,5,12.19a.26.26,0,0,1,0,.4l0,0a.47.47,0,0,1-.36.18A5.26,5.26,0,0,1,3.1,13,7.49,7.49,0,0,1,1.21,13,13.34,13.34,0,0,1,1.25,15.33Zm-.9.17a7,7,0,0,1,.29-2.84A.33.33,0,0,1,1,12.23a11.8,11.8,0,0,0,1.88,0c.36,0,.76-.13,1.14-.19A16.5,16.5,0,0,1,4.29,7,7.29,7.29,0,0,1,6.66,2,8,8,0,0,1,11.56.37c2,0,4.49-.46,6.27.59a.46.46,0,0,1,.12.12.24.24,0,0,1,.2.26c-.16.94-.34,1.88-.41,2.83a7.45,7.45,0,0,1-.27,2.05.45.45,0,0,1-.27.27.23.23,0,0,1-.14.13c-1.57.43-3.69-1-4.77.91-.78,1.33-.29,3.19-.25,4.62a17.29,17.29,0,0,1,3-.1c.74,0,1.66-.24,2.26.28a.18.18,0,0,1,.06.18c.68,1.41,0,3.62-.09,5.09a.36.36,0,0,1-.3.33.39.39,0,0,1-.27.24,10.83,10.83,0,0,1-5-.06c.22,3-.15,6.21-.12,9.24s.49,6.14,0,9a.3.3,0,0,1-.11.17.26.26,0,0,1-.19.19,11.2,11.2,0,0,1-3.61.14,9.88,9.88,0,0,1-2.78-.28.31.31,0,0,1-.43-.26c-.1-3.23-.25-6.39-.18-9.64A69.73,69.73,0,0,1,4.51,18a.62.62,0,0,1-.19.07A13,13,0,0,1,2,18.18a1.93,1.93,0,0,1-1-.29.38.38,0,0,1-.47-.16C.08,17.11.31,16.19.35,15.5Z" transform="translate(-0.25 -0.25)"/><path d="M16.45,17.41c-1.66.51-3.35-.15-5,.1a.28.28,0,0,0-.17.43c-1.14,2.21-.61,5.75-.55,8.06a86,86,0,0,1,.05,10.15c-1-.12-2.12.05-3.16,0a6.13,6.13,0,0,0-2.6.17c0-3.18,0-6.38.11-9.57.08-3,.45-6.1,0-9,0-.18-.29-.22-.42-.13a.39.39,0,0,0-.33-.18c-.67,0-1.34,0-2,.07-.33,0-.75-.07-1.11,0a7.91,7.91,0,0,1,.05-2.06,13.34,13.34,0,0,0,0-2.36A7.49,7.49,0,0,0,3.1,13a5.26,5.26,0,0,0,1.52-.25A.47.47,0,0,0,5,12.61l0,0a.26.26,0,0,0,0-.4c-.23-3-.12-7.5,2.3-9.48s7-1.45,10.07-1.07c-.75,1.24-.51,2.9-.85,4.26a4.65,4.65,0,0,0-4.7.64c-1.38,1.47-.74,3.85-.65,5.62a.43.43,0,0,0,.61.35,10,10,0,0,0,2.89.29,19,19,0,0,0,2.13-.1,6.73,6.73,0,0,0-.3,2,23,23,0,0,0,0,2.75Z" transform="translate(-0.25 -0.25)"/></g></g></svg>