<svg xmlns="http://www.w3.org/2000/svg" viewBox="0 0 36.1 34.12"><title>linkedin_icon</title><g id="Layer_2" data-name="Layer 2"><g id="Layer_1-2" data-name="Layer 1"><path d="M36.25,21.68c0,.74.07,1.48.1,2.22a1.27,1.27,0,0,0-.18.06c-.24,3.27-.13,6.59-.09,9.89a.24.24,0,0,1-.44.1.3.3,0,0,1,0-.1c0-2.67,0-5.33-.08-8A7.74,7.74,0,0,1,35.71,23a25.47,25.47,0,0,0-.42-5.15c-1.59-7.3-9.69-7.65-14.55-3.51a1.46,1.46,0,0,1-.1.34.2.2,0,0,1-.33,0,4.06,4.06,0,0,1-.23-1.48A14.47,14.47,0,0,1,20,11.61a26.19,26.19,0,0,1-3.42.12,14.64,14.64,0,0,1-3.37-.09,72.17,72.17,0,0,1,.23,11.48c-.09,2.28-.18,4.56-.19,6.85a18.16,18.16,0,0,1-.16,3.53,46.38,46.38,0,0,1,7.07.1C21,29.48,17.68,18.85,24,17.88c6.85-1,4.22,12.65,4.85,15.75,0,0,0,0,0,.07a17.49,17.49,0,0,1,3.67-.35c1,0,2,0,3,0,0,.15,0,.3.07.45a.17.17,0,0,0,0,.1,1.06,1.06,0,0,0,.06.19,16.3,16.3,0,0,1-2.88,0c-1.49-.06-3,.31-4.51,0a.15.15,0,0,1-.13-.16.53.53,0,0,1-.08-.15c-.57-2.42,0-5.33-.08-7.84,0-1-.06-2-.16-3.06-.26-2.6-1.71-5.33-4.85-4.16S20.72,25.45,20.73,28c0,1,.06,1.94,0,2.91a.1.1,0,0,1,.08.09,12.77,12.77,0,0,1-.21,3.37c0,.06-.12.09-.13,0a2.36,2.36,0,0,1,0-.28l0,0c-1.1.33-2.25-.08-3.36-.16-1.43-.1-2.86.14-4.29,0a.3.3,0,0,1-.38-.22c-.36-1.36.07-3.13.06-4.52,0-2.49.15-5,.21-7.46s0-4.68-.13-7a5.71,5.71,0,0,1,.26-3.16l-.12,0c-.15,0-.18-.3,0-.33a19.63,19.63,0,0,1,3.91-.08,14.42,14.42,0,0,1,4.05.12.13.13,0,0,1,0,.25.76.76,0,0,1-.16,0c.06.57.13,1.14.2,1.71a6.3,6.3,0,0,1,.09.85c3.71-3.69,9.61-4.26,13.17-.09C35.93,16.33,36.13,18.72,36.25,21.68Z" transform="translate(-0.25 -0.25)"/><path d="M35.62,33.85a.3.3,0,0,0,0,.1h0a.17.17,0,0,1,0-.1c0-.15-.05-.3-.07-.45-1-.08-2.05,0-3,0a17.49,17.49,0,0,0-3.67.35s0-.05,0-.07c-.63-3.1,2-16.79-4.85-15.75-6.32,1-3,11.6-3.84,15.72a46.38,46.38,0,0,0-7.07-.1A18.16,18.16,0,0,0,13.25,30c0-2.29.1-4.57.19-6.85a72.17,72.17,0,0,0-.23-11.48,14.64,14.64,0,0,0,3.37.09A26.19,26.19,0,0,0,20,11.61a14.47,14.47,0,0,0,.08,1.61,4.06,4.06,0,0,0,.23,1.48.2.2,0,0,0,.33,0,1.46,1.46,0,0,0,.1-.34c4.86-4.14,13-3.79,14.55,3.51A25.47,25.47,0,0,1,35.71,23a7.74,7.74,0,0,0-.17,2.83C35.6,28.52,35.65,31.18,35.62,33.85Z" transform="translate(-0.25 -0.25)"/><path d="M8.66,11.2a23.34,23.34,0,0,1,.1,4.18c0,1,0,2.14-.1,3.19a44.46,44.46,0,0,1-.11,6.63c-.16,2.84-.21,5.69-.42,8.53a2.61,2.61,0,0,0,.28,0,.25.25,0,1,1,0,.49H7.84c-1.27,0-2.53.05-3.8,0a10.61,10.61,0,0,1-2.64-.05.33.33,0,0,1-.52-.21,14.23,14.23,0,0,1,0-3.06l-.13.06c-.1-2.46.24-5,.24-7.39,0-2,.2-3.94.2-5.92s-.24-4,0-6a.21.21,0,0,1,.06-.1s0,0,0,0v0a.11.11,0,0,1,.07-.1,6.52,6.52,0,0,1,2.54-.21c1.55-.05,3,0,4.6-.15.12,0,.2.09.21.2Zm-.48,4.18a32.73,32.73,0,0,1,.21-4,12,12,0,0,1-4.19.24,11.7,11.7,0,0,1-2.52.07,59.33,59.33,0,0,1,.09,10.41c-.09,2,0,4.06-.15,6.09-.06.83-.15,1.63-.18,2.43l-.05,0c.11,1,.05,1.95.08,2.91a3.82,3.82,0,0,1,2-.08,40.87,40.87,0,0,0,4.12.2,75.7,75.7,0,0,1,.25-8.52C7.94,23.13,8,21,8.22,19A26.59,26.59,0,0,1,8.18,15.38Z" transform="translate(-0.25 -0.25)"/><path d="M8.4,1.66a4.57,4.57,0,0,1-.78,6.13C5.7,9.17,2.46,9,1,7a4,4,0,0,1,.06-4.69.14.14,0,0,1-.13-.23C2.81.22,6.48-.69,8.4,1.66ZM7.93,7c1.3-1.63,1-4.75-1-5.69C5.45.64,4,1.1,2.64,1.67a3.43,3.43,0,0,0-.26,5.69C4,8.55,6.58,8.7,7.93,7Z" transform="translate(-0.25 -0.25)"/><path d="M8.39,11.42a32.73,32.73,0,0,0-.21,4,26.59,26.59,0,0,0,0,3.57C8,21,7.94,23.13,7.82,25.2a75.7,75.7,0,0,0-.25,8.52,40.87,40.87,0,0,1-4.12-.2,3.82,3.82,0,0,0-2,.08c0-1,0-2-.08-2.91l.05,0c0-.8.12-1.6.18-2.43.16-2,.06-4.06.15-6.09a59.33,59.33,0,0,0-.09-10.41,11.7,11.7,0,0,0,2.52-.07A12,12,0,0,0,8.39,11.42Z" transform="translate(-0.25 -0.25)"/><path d="M6.91,1.33c2,.94,2.32,4.06,1,5.69S4,8.55,2.38,7.36a3.43,3.43,0,0,1,.26-5.69C4,1.1,5.45.64,6.91,1.33Z" transform="translate(-0.25 -0.25)"/></g></g></svg>