<svg xmlns="http://www.w3.org/2000/svg" viewBox="0 0 36.15 29.78"><title>twitter_icon</title><g id="Layer_2" data-name="Layer 2"><g id="Layer_1-2" data-name="Layer 1"><path d="M36.29,4.29c.08,0,.15.11.08.17L36,4.69c-.67.78-1.17,1.72-1.82,2.52a4.65,4.65,0,0,1-1.43,1.31c-.27,6.73-3.12,13.23-8.64,17.24a24.71,24.71,0,0,1-9.87,4.06l-.25.05h-.25c-.43.08-.94,0-1.3.09a2.9,2.9,0,0,1-.93,0l-.32,0h0c-.63,0-1.27-.1-1.78-.14a8.29,8.29,0,0,1-2.9-.42,12.13,12.13,0,0,1-6-2.72h0a1.67,1.67,0,0,1-.23-.12,0,0,0,0,1,0-.08,23.7,23.7,0,0,0,5.44-.62A25.76,25.76,0,0,0,10,24.1l-.4-.22A29.13,29.13,0,0,1,7,22.29c-1-.73-2.63-2.16-2.71-3.55a.74.74,0,0,1-.3-.45c0-.09.07-.14.15-.11a4,4,0,0,0,2.05.38,5,5,0,0,0,.57-.11,3.74,3.74,0,0,1-.91-.56,23.48,23.48,0,0,1-2.37-2,6.41,6.41,0,0,1-2.13-4.66.64.64,0,0,1-.06-.41.12.12,0,0,1,.14-.07,2,2,0,0,1,.54.39,4.15,4.15,0,0,0,1.07.59A7.45,7.45,0,0,0,4.29,12C1,9.48.2,3.46,4,1c.12-.08.23,0,.23.14a.17.17,0,0,1,.22,0C5.28,2,5.9,3,6.82,3.82a18.53,18.53,0,0,0,3.86,2.57,41.91,41.91,0,0,0,4.57,2.23c.67.24,1.35.38,2,.59-.75-3,1.51-6.46,3.89-7.86A7,7,0,0,1,26.71.5c1.19.34,3,1.1,3.49,2.33.69-.19,1.37-.36,2.05-.6,1-.36,1.93-.87,2.93-1.23a.09.09,0,0,1,.11.13c-.6,1.17-1.23,3-2.37,3.91.41-.07.81-.14,1.2-.23A9.15,9.15,0,0,1,36.29,4.29ZM34,6.37a15.85,15.85,0,0,1,1.32-1.28,4.75,4.75,0,0,1-1.41.45,2.79,2.79,0,0,1-1.74-.08c-.27,0-.58-.24-.31-.46a10.83,10.83,0,0,0,2.17-2.55c.13-.21.28-.47.44-.72l-.14.08A12.22,12.22,0,0,1,31.59,3a2.53,2.53,0,0,1-1.29.19l0,0c-1-.21-1.66-1-2.6-1.5a6.25,6.25,0,0,0-6.07.35c-2.3,1.35-4.32,4.8-3.29,7.59a.35.35,0,0,1,0,.14c0,.35-.44.49-.71.28-2.77-.19-5.4-1.91-7.73-3.25A14.6,14.6,0,0,1,4.16,1.36c0,.21-.1.1-.32.45A7,7,0,0,0,2.44,5.2a8,8,0,0,0,.35,3.64c.56,1.49,1.3,1.84,2.27,2.85a.38.38,0,0,1-.07.57.23.23,0,0,1-.07.33,3.35,3.35,0,0,1-2.27-.33A4.93,4.93,0,0,1,2.06,12c.11.3.19.6.3.9a6,6,0,0,0,1.51,2.39A20,20,0,0,0,7.57,18a.31.31,0,0,1,.08.43s0,0,0,0a.07.07,0,0,1,0,.07c-.11.5-1.51.55-1.91.56A3.84,3.84,0,0,1,5,19a10.09,10.09,0,0,0,2.52,2.66,32.27,32.27,0,0,0,3.75,2,.29.29,0,0,1,0,.5,1.27,1.27,0,0,1-.75.09c-.29.49-.63.61-1.22.87a31,31,0,0,1-3.37,1.39,10.85,10.85,0,0,1-4.24.57A21.68,21.68,0,0,0,7,28.6l.79.1h0a25,25,0,0,1,4.06.42c.39,0,.77-.06,1.17-.13a10.89,10.89,0,0,1,1.31-.17c.85-.2,1.67-.43,2.42-.65a22.57,22.57,0,0,0,8.17-4.25C29.48,20.15,31,14.24,32,8.6a.18.18,0,0,1-.05-.26A.69.69,0,0,1,32,8.21L32,8a.35.35,0,0,1,.47-.25c.14-.1.28-.19.41-.3A14.66,14.66,0,0,0,34,6.37Z" transform="translate(-0.25 -0.25)"/><path d="M35.35,5.09A15.85,15.85,0,0,0,34,6.37a14.66,14.66,0,0,1-1.11,1.12c-.13.11-.27.2-.41.3A.35.35,0,0,0,32,8l0,.17a.69.69,0,0,0-.11.13A.18.18,0,0,0,32,8.6c-.93,5.64-2.47,11.55-7.08,15.33a22.57,22.57,0,0,1-8.17,4.25c-.75.22-1.57.45-2.42.65A10.89,10.89,0,0,0,13,29c-.4.07-.78.1-1.17.13a25,25,0,0,0-4.06-.42h0L7,28.6a21.68,21.68,0,0,1-5.27-1.48,10.85,10.85,0,0,0,4.24-.57,31,31,0,0,0,3.37-1.39c.59-.26.93-.38,1.22-.87a1.27,1.27,0,0,0,.75-.09.29.29,0,0,0,0-.5,32.27,32.27,0,0,1-3.75-2A10.09,10.09,0,0,1,5,19a3.84,3.84,0,0,0,.79.07c.4,0,1.8-.06,1.91-.56a.07.07,0,0,0,0-.07s0,0,0,0A.31.31,0,0,0,7.57,18a20,20,0,0,1-3.7-2.78,6,6,0,0,1-1.51-2.39c-.11-.3-.19-.6-.3-.9a4.93,4.93,0,0,0,.59.31,3.35,3.35,0,0,0,2.27.33A.23.23,0,0,0,5,12.26a.38.38,0,0,0,.07-.57c-1-1-1.71-1.36-2.27-2.85A8,8,0,0,1,2.44,5.2a7,7,0,0,1,1.4-3.39c.22-.35.27-.24.32-.45A14.6,14.6,0,0,0,9.91,6.85c2.33,1.34,5,3.06,7.73,3.25.27.21.74.07.71-.28a.35.35,0,0,0,0-.14c-1-2.79,1-6.24,3.29-7.59a6.25,6.25,0,0,1,6.07-.35c.94.46,1.58,1.29,2.6,1.5l0,0A2.53,2.53,0,0,0,31.59,3a12.22,12.22,0,0,0,2.77-1.22l.14-.08c-.16.25-.31.51-.44.72A10.83,10.83,0,0,1,31.89,5c-.27.22,0,.51.31.46a2.79,2.79,0,0,0,1.74.08A4.75,4.75,0,0,0,35.35,5.09Zm-7.9-.93a1,1,0,0,0-.28-1A1.21,1.21,0,0,0,25.8,3a1.07,1.07,0,0,0-.52,1.21,1.15,1.15,0,0,0,2.18,0v0A0,0,0,0,0,27.45,4.16Z" transform="translate(-0.25 -0.25)"/><path d="M27.45,4.16a0,0,0,0,1,0,0v0a1.15,1.15,0,0,1-2.18,0A1.07,1.07,0,0,1,25.8,3a1.21,1.21,0,0,1,1.37.17A1,1,0,0,1,27.45,4.16Z" transform="translate(-0.25 -0.25)"/></g></g></svg>