<?xml version="1.0" encoding="utf-8"?>
<!-- Generator: Adobe Illustrator 22.1.0, SVG Export Plug-In . SVG Version: 6.00 Build 0)  -->
<svg version="1.1" id="Layer_9" xmlns="http://www.w3.org/2000/svg" xmlns:xlink="http://www.w3.org/1999/xlink" x="0px" y="0px"
	 viewBox="0 0 512 416" style="enable-background:new 0 0 512 416;" xml:space="preserve">
<style type="text/css">
	.st0{fill:#1769FF;}
</style>
<path class="st0" d="M472.6,304H339c-8.8,0-16-7.2-16-16c0-8.8,7.2-16,16-16h128.2c6.5,0,11.8-5.4,11.8-12c0-1-0.3-1.9-0.5-2.8
	c-12.6-37.9-47.6-65.2-89-65.2c-52,0-94.1,43-94.1,96c0,53,42.1,96,94.1,96c32,0,60.2-16.3,77.2-41.2l0,0c2.9-3.9,7.5-6.4,12.7-6.4
	c8.7,0,15.8,7.1,15.8,15.8c0,3.2-1,6.2-2.6,8.7c-0.2,0.3-0.5,0.6-0.7,0.9c-22.7,32.8-60.1,54.2-102.4,54.2
	C320.2,416,264,358.7,264,288c0-70.7,56.2-128,125.5-128c59.1,0,108.5,41.7,121.8,97.7c0.3,2,0.5,4.2,0.5,6.3
	C511.8,286.1,494.3,304,472.6,304L472.6,304z M432,128h-96c-8.8,0-16-7.2-16-16c0-8.8,7.2-16,16-16h96c8.9,0,16,7.2,16,16
	C448,120.8,440.8,128,432,128L432,128z M16,128c8.8,0,16,7.2,16,16c0,8.8-7.2,16-16,16c-8.8,0-16-7.2-16-16C0,135.2,7.2,128,16,128
	L16,128z M223,233.3c6.2,0,11.6,3.6,14.2,8.8c11.8,17.7,18.8,39,18.8,62c0,61.9-50.2,112-112,112h-24h-8H40c-22.1,0-40-17.9-40-40
	V232c0-22.1,17.9-40,40-40h88h8c44.2,0,80-35.8,80-80c0-44.2-35.8-80-80-80h-24H48c-8.8,0-16,7.2-16,16v32c0,8.8-7.2,16-16,16
	C7.2,96,0,88.8,0,80V40C0,17.9,17.9,0,40,0h72h8h16c61.9,0,112,50.2,112,112c0,53.6-37.7,98.2-88,109.2c0,0-10.5,2.8-16,2.8h-16h-16
	H44c-6.6,0-12,5.4-12,12v132c0,8.8,7.2,16,16,16h64h32c44.2,0,80-35.8,80-80c0-16.8-5.2-32.4-14.1-45.3l0.1-0.1
	c-1.9-2.6-3-5.8-3-9.3C207,240.4,214.2,233.3,223,233.3L223,233.3z"/>
</svg>
