<?xml version="1.0" encoding="utf-8"?>
<!-- Generator: Adobe Illustrator 22.1.0, SVG Export Plug-In . SVG Version: 6.00 Build 0)  -->
<svg version="1.1" id="Layer_12" xmlns="http://www.w3.org/2000/svg" xmlns:xlink="http://www.w3.org/1999/xlink" x="0px" y="0px"
	 viewBox="0 0 512 504" style="enable-background:new 0 0 512 504;" xml:space="preserve">
<style type="text/css">
	.st0{fill:#171515;}
</style>
<path class="st0" d="M192,368c0-8.8,7.2-16,16-16s16,7.2,16,16s-7.2,16-16,16S192,376.8,192,368L192,368z M349.3,494.2
	c-4.3,1.2-8.7,2.1-13.3,2.1c-26.5,0-48-21.5-48-48v-58.2c0-20.1,12.9-37.2,30.8-43.4c34.4-11.5,65.2-40.5,65.2-74.6v-32
	c0-15.2-6.2-29.3-16-41.4v-36.1c0-17.7-14.3-23.7-32-13.5l-24.5,14.2c-7.9-2-15.8-3.2-23.5-3.2h-64c-7.7,0-15.6,1.1-23.5,3.2
	L176,149c-17.7-10.2-32-4.2-32,13.5v36.1c-9.8,12.1-16,26.2-16,41.4v32c0,23.3,14.5,44.2,34.6,58.8l0,0c4.2,2.9,6.9,7.7,6.9,13.2
	c0,8.8-7.2,16-16,16c-4.5,0-8.6-1.9-11.5-4.9C115,334.6,96,305,96,272v-32c0-18.5,6-36,16-51.4V141c0-35.3,28.6-47.4,64-27
	l27.5,15.9c6.8-1.2,13.7-1.9,20.5-1.9h64c6.8,0,13.7,0.7,20.5,1.9L336,114c35.4-20.4,64-8.3,64,27v47.6c10,15.4,16,32.9,16,51.4v32
	c0,47.6-39.2,88.1-85.5,104.4c-0.1,0-0.1,0.2-0.2,0.2c-6,2.3-10.3,8.1-10.3,15v56.8c0,8.8,7.2,16,16,16c1.3,0,2.6-0.4,3.8-0.7
	C422,430.4,480,350.1,480,256c0-123.7-100.3-224-224-224C132.3,32,32,132.3,32,256c0,97.4,62.3,180.1,149.1,210.9
	c0.4,0,0.9,0.2,1.3,0.2c5.3,0,9.6-4.3,9.6-9.6c0-5.3-4.3-9.6-9.6-9.6c-0.1,0-0.1-0.1-0.2-0.1C129.1,446.4,129,384,112,384
	c-8.8,0-16-7.2-16-16s7.2-16,16-16c1.7,0,4.2,0,8,0c32,0,27.4,64,72,64c17.7,0,32,14.3,32,32v28c0,15.5-12.5,28-28,28
	c-1.7,0-3.3-0.3-4.9-0.7C81.2,474.6,0,374.9,0,256C0,114.6,114.6,0,256,0s256,114.6,256,256C512,364.4,444.5,456.8,349.3,494.2
	L349.3,494.2z"/>
</svg>
