<?xml version="1.0" encoding="utf-8"?>
<!-- Generator: Adobe Illustrator 22.1.0, SVG Export Plug-In . SVG Version: 6.00 Build 0)  -->
<svg version="1.1" id="Layer_1" xmlns="http://www.w3.org/2000/svg" xmlns:xlink="http://www.w3.org/1999/xlink" x="0px" y="0px"
	 viewBox="0 0 500 500" style="enable-background:new 0 0 500 500;" xml:space="preserve">
<style type="text/css">
	.st0{fill:#3F3F3F;stroke:#000000;stroke-width:4;stroke-miterlimit:10;}
</style>
<g id="_x32_">
	<g>
		<path class="st0" d="M235.8,493.2c-2.9,0-5.8-0.1-8.8-0.2c-37.8-1.5-73.5-12.3-103-31.2c-41.2-26.4-90.4-81.4-90.4-193
			c0-50.3,9.4-95.3,27.9-134C78.6,99,103,69.7,134,47.8c60.9-43.1,142.1-53,217.4-26.5c37.6,13.2,68.2,40.8,88.3,79.6
			c17.3,33.4,26.7,75.2,26.5,117.7c-0.2,35.7-7.2,70.5-19.8,97.9c-13.8,30.1-33.3,50.2-56.5,58c-23.3,7.9-42.6,6.3-57.3-4.7
			c-30.3-22.7-28.3-77.1-28.2-79.4c0.2-4.1,3.7-7.4,7.8-7.2c4.1,0.2,7.3,3.7,7.2,7.8c0,0.3-0.5,12.8,2.2,27.4
			c2.4,12.9,7.8,30.2,20,39.3c10.5,7.9,25.2,8.7,43.5,2.5c38.5-13.1,65.7-71.4,66.1-141.8c0.2-40.1-8.6-79.4-24.8-110.7
			c-18.3-35.4-46-60.4-80-72.4c-70.7-24.9-146.8-15.7-203.7,24.6c-28.9,20.4-51.6,47.8-67.7,81.2C57.6,178,48.7,220.9,48.7,268.9
			c0,104.8,45.4,156,83.5,180.4c61.3,39.3,138.8,34,188.3,11.2c3.8-1.7,8.2-0.1,9.9,3.7c1.7,3.8,0.1,8.2-3.7,9.9
			C299.6,486.5,267.7,493.2,235.8,493.2z"/>
	</g>
	<g>
		<path class="st0" d="M215.5,381.2c-20.9,0-37.3-8-48.8-23.9c-26-36-17.9-103.2-6.7-137.2c9.5-28.8,20.1-51.5,41-69
			c32.2-26.9,65.2-25.8,87.1-20.2c23.5,6,39.4,18.2,40,18.7c2,1.6,3.1,4,2.9,6.6l-11.5,135.4c-0.1,0.7-0.2,1.4-0.5,2
			C290,369.8,241.7,381.2,215.5,381.2z M262.9,142.6c-18.8,0-36.3,6.7-52.3,20c-18.2,15.2-27.7,35.8-36.4,62.2
			c-11,33.5-16.9,94,4.6,123.7c8.6,11.9,20.6,17.7,36.6,17.7c51.5,0,77.9-47.8,89.2-77l11.1-130c-5.4-3.5-16.9-10.2-31.8-13.9
			C276.8,143.5,269.8,142.6,262.9,142.6z"/>
	</g>
</g>
</svg>
