<?xml version="1.0" encoding="utf-8"?>
<!-- Generator: Adobe Illustrator 22.1.0, SVG Export Plug-In . SVG Version: 6.00 Build 0)  -->
<svg version="1.1" id="Layer_1" xmlns="http://www.w3.org/2000/svg" xmlns:xlink="http://www.w3.org/1999/xlink" x="0px" y="0px"
	 viewBox="0 0 500 500" style="enable-background:new 0 0 500 500;" xml:space="preserve">
<style type="text/css">
	.st0{fill:none;stroke:#3A3A3A;stroke-width:23.4972;stroke-linecap:round;stroke-linejoin:round;stroke-miterlimit:10;}
	.st1{fill:none;stroke:#3A3A3A;stroke-width:27.1122;stroke-linecap:round;stroke-linejoin:round;stroke-miterlimit:10;}
</style>
<g id="_x39_">
	<path class="st0" d="M391.3,247.8c0-21.2-4.6-42.8-14.5-63.2c-24.7-51.1-75.5-81.1-128.7-81.8"/>
	<path class="st0" d="M474.8,247.8c0-33.4-7.3-67.4-22.9-99.5C412.8,67.5,332.2,20.1,248.1,19.4"/>
	<path class="st1" d="M321.3,364.8c0,0-24.4-2.3-103.4-87c-79.6-85.3-79.6-109.2-79.6-109.2l30.8-41.4c8.2-10.3,7.7-25-1.3-34.6
		L105.7,26c-11.5-12.4-31.3-11.7-42,1.4L46.3,48.9C-13.3,119,63.3,246,151.2,340.1c85.3,91.4,210,182.1,283.3,124.8L457,449
		c13.8-9.7,15.9-29.4,4.3-41.8l-62.1-66.6c-9-9.6-23.7-11.2-34.5-3.7L321.3,364.8z"/>
</g>
</svg>
