<?xml version="1.0" encoding="utf-8"?>
<!-- Generator: Adobe Illustrator 22.1.0, SVG Export Plug-In . SVG Version: 6.00 Build 0)  -->
<svg version="1.1" id="Layer_1" xmlns="http://www.w3.org/2000/svg" xmlns:xlink="http://www.w3.org/1999/xlink" x="0px" y="0px"
	 viewBox="0 0 1920 1080" style="enable-background:new 0 0 1920 1080;" xml:space="preserve">
<style type="text/css">
	.st0{fill:url(#SVGID_1_);}
	.st1{fill:url(#SVGID_2_);}
</style>
<linearGradient id="SVGID_1_" gradientUnits="userSpaceOnUse" x1="15" y1="540" x2="1905" y2="540">
	<stop  offset="0" style="stop-color:#FF0530"/>
	<stop  offset="0.2746" style="stop-color:#3F3F3F"/>
	<stop  offset="0.3373" style="stop-color:#403D43"/>
	<stop  offset="0.4034" style="stop-color:#443850"/>
	<stop  offset="0.4711" style="stop-color:#4A3065"/>
	<stop  offset="0.54" style="stop-color:#522483"/>
	<stop  offset="0.6098" style="stop-color:#5D15A9"/>
	<stop  offset="0.6793" style="stop-color:#6A03D7"/>
	<stop  offset="0.6894" style="stop-color:#6C00DE"/>
	<stop  offset="0.7468" style="stop-color:#6F00DB"/>
	<stop  offset="0.7942" style="stop-color:#7700D0"/>
	<stop  offset="0.8381" style="stop-color:#8601BF"/>
	<stop  offset="0.8798" style="stop-color:#9B02A7"/>
	<stop  offset="0.92" style="stop-color:#B50288"/>
	<stop  offset="0.9591" style="stop-color:#D50461"/>
	<stop  offset="0.9967" style="stop-color:#FB0534"/>
	<stop  offset="1" style="stop-color:#FF0530"/>
</linearGradient>
<path class="st0" d="M213.2,420.7c7.2-5.5,13.4-9.4,18.6-11.6c5.2-2.2,5.6,0,1.2,6.6c-2.2,3.3-6.5,8.3-12.8,14.9
	c-6.3,6.6-13.6,13.9-21.9,21.9c-8.3,8-17,16.3-26.1,24.8c-9.1,8.6-17.5,16.4-25.2,23.6c-16,14.9-31.2,26.8-45.5,35.6
	c-14.3,8.8-25.9,12.4-34.7,10.7c-17.1-3.9-28.7-15.7-34.7-35.6c-1.7-5-3-12.7-4.1-23.2c-1.1-10.5-2.2-21.8-3.3-33.9
	c-1.1-12.1-2.2-24.1-3.3-36c-1.1-11.9-2.2-21.9-3.3-30.2c-1.1-8.3-1.9-21.6-2.5-40.1c-0.5-18.5-0.7-38.7-0.4-60.8
	c0.3-22,0.7-43.7,1.2-64.9c0.5-21.2,1.1-38.7,1.7-52.5c0.5-13.8,1.5-27.6,2.9-41.3c1.4-13.8,2.8-26.5,4.1-38
	c1.4-11.6,2.6-21.8,3.7-30.6c1.1-8.8,1.9-15.4,2.5-19.9c0.5-8.8,4.7-14.2,12.4-16.1c7.7-1.9,15.2-1.5,22.3,1.2
	c3.3,1.1,7.7,2.9,13.2,5.4c5.5,2.5,11,5.4,16.5,8.7c5.5,3.3,10.3,6.9,14.5,10.7c4.1,3.9,6.5,8,7,12.4c0.5,4.4,1,10.5,1.2,18.2
	c0.3,7.7,0.3,15.7,0,24c-0.3,8.3-0.6,16-0.8,23.2c-0.3,7.2-0.4,12.4-0.4,15.7c-0.6,3.3-1.5,10.3-2.9,21.1c-1.4,10.8-3,22.5-5,35.1
	c-1.9,12.7-3.7,24.9-5.4,36.8c-1.7,11.9-2.8,20.5-3.3,26.1c-1.1,6.1-1.8,17.7-2.1,34.7c-0.3,17.1-0.7,34.7-1.2,52.9
	c-0.6,21.5-1.1,44.9-1.7,70.3l5.8-33.9l4.1,87.7c7.2,0.6,16.3-1.4,27.3-5.8c11-4.4,21.9-9.8,32.7-16.1c10.7-6.3,20.5-12.5,29.4-18.6
	C203.8,427.9,209.9,423.4,213.2,420.7z M88.3,437.2c-2.8-1.1-4.1-3-4.1-5.8c0-1.1,0.3-1.9,0.8-2.5l-1.7-7.4c0-3.3-0.3-6.1-0.8-8.3
	c-1.1-5.5-2.2-8.3-3.3-8.3c-2.2,0-3.2,1.2-2.9,3.7c0.3,2.5,1,6.2,2.1,11.2c1.1,5,2.3,9.7,3.7,14.1C83.5,438.3,85.6,439.4,88.3,437.2
	z M83.4,371.1c-0.6,2.2-1.1,4.4-1.6,6.6c-0.6,2.2-1,4.4-1.2,6.6c-0.3,2.2-0.7,4.7-1.2,7.4c0,0.6,0.3,0.6,0.8,0
	c0.5,0,1.7-1.9,3.3-5.8c1.1-2.2,1.5-4.3,1.2-6.2c-0.3-1.9-0.4-3.4-0.4-4.5C83.6,373.5,83.4,372.2,83.4,371.1z M402.6,247.8
	c1.1,2.8,1.4,6.6,0.8,11.6c-0.6,4.4-1.8,9.8-3.7,16.1c-1.9,6.3-5.4,14.2-10.3,23.6c-2.8,4.4-7.4,12.1-14.1,23.2
	c-6.6,11-14.3,22.7-23.2,35.1c-8.8,12.4-17.8,23.9-26.9,34.3c-9.1,10.5-17,17.1-23.6,19.8c-14.3,6.1-24,7.3-28.9,3.7
	c-5-3.6-7.4-15.6-7.4-36c0-9.9-0.3-21.1-0.8-33.5c-0.6-12.4-1-24.3-1.2-35.6c-0.3-11.3-0.4-20.9-0.4-28.9c0-8,0.8-12.8,2.5-14.5
	c1.1-1.7,2.3-3.2,3.7-4.5c1.4-1.4,2.6-2.6,3.7-3.7c1.1-1.6,2.2-3,3.3-4.1c4.4-1.1,8.8-2.3,13.2-3.7c4.4-1.4,8.3-2.2,11.6-2.5
	c3.3-0.3,5.9,0,7.9,0.8c1.9,0.8,2.6,2.6,2.1,5.4c-1.1,6.1-1.2,14.8-0.4,26.1c0.8,11.3,1.2,21.4,1.2,30.2c0,4.4-0.6,10.5-1.6,18.2
	c-1.1,7.7-2.1,15.2-2.9,22.3c-0.8,7.2-1,12.8-0.4,17c0.5,4.1,2.2,5.1,5,2.9c8.3-6.6,16.7-14.9,25.2-24.8
	c8.5-9.9,16.8-20.7,24.8-32.3c8-11.6,15.6-23.2,22.7-34.7C391.5,267.7,397.6,257.2,402.6,247.8z M300,194.9c-1.7,0.6-3.9,1-6.6,1.2
	c-2.8,0.3-5.4,0.3-7.9,0c-2.5-0.3-4.7-1.4-6.6-3.3c-1.9-1.9-2.4-4.8-1.2-8.7c1.7-8.8,3.3-15.2,5-19c1.1-2.2,2.2-4.4,3.3-6.6
	c5-2.2,9.6-3.9,14.1-5c3.8-1.1,7.3-1.4,10.3-0.8c3,0.6,4.5,2.5,4.5,5.8c0,3.3-0.4,6.9-1.2,10.7c-0.8,3.9-2.1,7.7-3.7,11.6
	c-1.7,3.9-3.3,7-5,9.5C303.3,192.8,301.7,194.4,300,194.9z M491.1,439.7c11,2.2,18.3,7.4,21.9,15.7c3.6,8.3,2.1,17.1-4.5,26.5
	c-6.6,9.4-15,16-25.2,19.8c-10.2,3.9-19.7,4.1-28.5,0.8c-12.1-5-19.3-14.1-21.5-27.3c-2.2-14.3-2.4-28.1-0.4-41.3
	c1.9-13.2,3.4-26.7,4.5-40.5c1.1-5.5,1.9-11.8,2.5-19c-9.9,2.2-19.2,2.2-27.7,0c-8.6-2.2-15.9-6.1-21.9-11.6
	c-6.1-5.5-10.9-11.9-14.5-19c-3.6-7.2-5.7-14.6-6.2-22.3c-1.1-13.2,0.1-25.9,3.7-38c3.6-12.1,10.3-22.9,20.3-32.3
	c6.6-6.1,13.2-12,19.8-17.8c6.6-5.8,13.2-11.7,19.9-17.8c1.6-1.6,4.7-2.8,9.1-3.3c4.4-0.5,9.2-0.5,14.5,0c5.2,0.6,9.9,1.8,14.1,3.7
	c4.1,1.9,6.5,4.5,7,7.9c-1.7,7.7-5.1,13.2-10.3,16.5c-5.2,3.3-10.1,7.2-14.5,11.6c-7.2,6.6-14.2,13-21.1,19
	c-6.9,6.1-13.4,13-19.4,20.7c-3.9,5-7.4,11-10.8,18.2c-3.3,7.2-5.1,14.5-5.4,21.9c-0.3,7.4,1.2,14.1,4.5,19.8s9.4,9.5,18.2,11.2
	c8.8,1.1,15.7-1.8,20.7-8.7c5-6.9,8.7-15.8,11.2-26.9c2.5-11,4.1-22.9,5-35.6c0.8-12.7,1.8-24.3,2.9-34.7
	c7.7-7.7,15.2-11.4,22.3-11.2c7.2,0.3,12.9,3.2,17.4,8.7c-4.4,24.3-8.6,47.8-12.4,70.7c-3.9,22.9-7.7,46.2-11.6,69.9
	c-1.7,1.1-2.5,1.9-2.5,2.5l1.6,1.7v0.8c-1.6,0-2.2,0.6-1.6,1.7c0.5,1.1,0.7,1.6,0.4,1.6c-0.3,0-0.4,0.6-0.4,1.7
	c-0.6,1.1-1.7,2.1-3.3,2.9c-1.6,0.8-1.9,1.5-0.8,2.1c0.5,0.6,1.9,0.3,4.1-0.8c-1.1,5-1.9,9.9-2.5,14.9c-0.6,5-1.4,10.2-2.5,15.7
	c5,0,9.4-0.3,13.2-0.8C484.2,438.3,487.8,438.6,491.1,439.7z M468.7,493.5c6.6,2.2,11.7,0.7,15.3-4.5c3.6-5.2,5.4-9.5,5.4-12.8
	c-2.8-6.6-6.1-10.8-9.9-12.4c-3.9-1.7-8.3-0.3-13.2,4.1c0.5,4.4,1,8.4,1.2,12C467.8,483.4,468.2,487.9,468.7,493.5z M553.1,248.7
	c4.4-3.8,8.5-4.8,12.4-2.9c3.8,1.9,5.5,6.8,5,14.5c0,3.9,0,9.8,0,17.8c0,8,0,16.5,0,25.6s0,17.9,0,26.5c0,8.6,0,15.3,0,20.3
	c0,5-0.4,10.2-1.2,15.7c-0.8,5.5-1.4,10.1-1.6,13.6c-0.3,3.6,0,5.7,0.8,6.2c0.8,0.6,2.9-1.6,6.2-6.6c3.3-5,7.9-14.2,13.6-27.7
	c5.8-13.5,12.1-27.7,19-42.6c6.9-14.9,13.9-28.7,21.1-41.3c7.2-12.7,13.5-20.9,19-24.8c11-7.7,18.9-13.2,23.6-16.5
	c4.7-3.3,9.5-2.8,14.5,1.6c5.5,4.4,7.2,9.8,5,16.1c-2.2,6.3-3.9,16.7-5,31c-0.6,7.2-1.2,15.6-2.1,25.2c-0.8,9.7-1.5,18.7-2.1,27.3
	c-0.6,8.6-0.8,15.7-0.8,21.5s0.5,8.4,1.6,7.9c0.5-0.5,2.2-3,5-7.4c2.7-4.4,6.3-9.6,10.7-15.7c4.4-6.1,9-12.9,13.6-20.7
	c4.7-7.7,9.2-14.9,13.6-21.5c4.4-6.6,8.3-12.7,11.6-18.2c3.3-5.5,5.8-9.4,7.4-11.6c4.4-6.6,7.3-9.1,8.7-7.4c1.4,1.7,1.8,3.9,1.2,6.6
	c0,1.1-2.9,6.8-8.7,17c-5.8,10.2-12.4,21.5-19.8,33.9c-7.4,12.4-15,24.7-22.7,36.8c-7.7,12.1-13.8,21-18.2,26.5
	c-6.1,7.7-9.5,13.4-10.3,17c-0.8,3.6-3.2,5.9-7,7c-4.4,0.6-8.3,0.7-11.6,0.4c-3.3-0.3-6.1-1.7-8.3-4.1c-2.2-2.5-3.7-6.5-4.5-12
	c-0.8-5.5-1-12.9-0.4-22.3c0.5-9.4,1.2-19.2,2.1-29.4c0.8-10.2,1.5-19.7,2.1-28.5c0.5-9.9,1.1-19.6,1.6-28.9
	c-4.4,14.3-9.4,28.4-14.9,42.2c-4.4,11.6-9.4,23.3-14.9,35.1c-5.5,11.9-10.5,21.6-14.9,29.4c-9.4,16-16.5,28.7-21.5,38
	c-5,9.4-13.8,14.6-26.5,15.7c-12.7,1.1-21.2-3.2-25.6-12.8c-4.4-9.6-6.9-23.8-7.4-42.6c0-9.4,0.7-20.8,2.1-34.3
	c1.4-13.5,3.4-26.7,6.2-39.7c2.8-12.9,6.1-24.8,9.9-35.6C544.5,259,548.7,252,553.1,248.7z M877.3,247.8c1.1,2.8,1.4,6.6,0.8,11.6
	c-0.6,4.4-1.8,9.8-3.7,16.1c-1.9,6.3-5.4,14.2-10.3,23.6c-2.8,4.4-7.4,12.1-14.1,23.2c-6.6,11-14.3,22.7-23.2,35.1
	c-8.8,12.4-17.8,23.9-26.9,34.3c-9.1,10.5-17,17.1-23.6,19.8c-14.3,6.1-24,7.3-28.9,3.7c-5-3.6-7.4-15.6-7.4-36
	c0-9.9-0.3-21.1-0.8-33.5c-0.6-12.4-1-24.3-1.2-35.6c-0.3-11.3-0.4-20.9-0.4-28.9c0-8,0.8-12.8,2.5-14.5c1.1-1.7,2.3-3.2,3.7-4.5
	c1.4-1.4,2.6-2.6,3.7-3.7c1.1-1.6,2.2-3,3.3-4.1c4.4-1.1,8.8-2.3,13.2-3.7c4.4-1.4,8.3-2.2,11.6-2.5c3.3-0.3,5.9,0,7.9,0.8
	c1.9,0.8,2.6,2.6,2.1,5.4c-1.1,6.1-1.2,14.8-0.4,26.1c0.8,11.3,1.2,21.4,1.2,30.2c0,4.4-0.6,10.5-1.6,18.2
	c-1.1,7.7-2.1,15.2-2.9,22.3c-0.8,7.2-1,12.8-0.4,17c0.5,4.1,2.2,5.1,5,2.9c8.3-6.6,16.7-14.9,25.2-24.8
	c8.5-9.9,16.8-20.7,24.8-32.3c8-11.6,15.6-23.2,22.7-34.7C866.2,267.7,872.3,257.2,877.3,247.8z M774.7,194.9
	c-1.7,0.6-3.9,1-6.6,1.2c-2.8,0.3-5.4,0.3-7.9,0c-2.5-0.3-4.7-1.4-6.6-3.3c-1.9-1.9-2.4-4.8-1.2-8.7c1.7-8.8,3.3-15.2,5-19
	c1.1-2.2,2.2-4.4,3.3-6.6c5-2.2,9.6-3.9,14.1-5c3.8-1.1,7.3-1.4,10.3-0.8c3,0.6,4.5,2.5,4.5,5.8c0,3.3-0.4,6.9-1.2,10.7
	c-0.8,3.9-2.1,7.7-3.7,11.6c-1.7,3.9-3.3,7-5,9.5C778,192.8,776.4,194.4,774.7,194.9z M1184.9,395.9v2.5c0,2.8-0.5,5.9-1.6,9.5
	c-1.1,3.6-1.4,6.8-0.8,9.5c-2.2,4.4-3.3,8.3-3.3,11.6c0,1.7,0.3,3,0.8,4.1c1.1,4.4,1.1,8.8,0,13.2c-1.1,4.4-2.2,8.8-3.3,13.2h-0.8
	l-2.5-3.3l-0.8-3.3l-0.8,1.7l0.8,5l2.5,3.3l-0.8,1.7c-2.8,0-5.9,3.6-9.5,10.7c-3.6,7.2-5.4,12.7-5.4,16.5v1.7c0.5,0,1.9-1.1,4.1-3.3
	c2.2-2.2,3.6-3.6,4.1-4.1l-0.8,9.9c-1.7,3.3-3.3,6.6-5,9.9c-1.7,3.3-3.6,6.3-5.8,9.1l-0.8,0.8l-0.8-0.8l-1.6-4.1l-0.8,3.3l-3.3,4.1
	c-1.1,4.4-3.6,8.6-7.4,12.4c-1.6,4.4-5,7.2-9.9,8.3c-0.5,0.5-0.3,0.8,0.8,0.8l0.8-0.8h0.8l-1.7,3.3c-1.1,0-1.8-0.3-2.1-0.8
	c-0.3-0.6-1-0.3-2.1,0.8l-3.3,5c1.1-0.6,1.9-0.6,2.5,0c0.5,0.5,0.3,1.4-0.8,2.5c-5.5,4.4-11.3,8.3-17.4,11.6c-6.1,3.3-13,5-20.7,5
	c-14.3,0-27-4.3-38-12.8c-11-8.6-20.4-19.1-28.1-31.8c-7.7-12.7-13.5-26.2-17.4-40.5c-3.9-14.3-5.2-27.6-4.1-39.7
	c-0.6-0.5-1.4-1.4-2.5-2.5c-1.1-1.1-1.7-2.2-1.7-3.3l0.8-14.9c-9.4,4.4-17.4,8.1-24,11.2c-6.6,3-14.9,4.5-24.8,4.5
	c-28.1,0-48.4-7.7-60.8-23.2c-12.4-15.4-18.6-36.9-18.6-64.5c0-15.4,3.3-31.6,9.9-48.4c6.6-16.8,15.6-32.1,26.9-45.9
	c11.3-13.8,24.4-25.1,39.3-33.9c14.9-8.8,30.9-13.2,48-13.2l24,0.8c3.3,0.6,5.4-0.7,6.2-3.7c0.8-3,1.5-5.9,2.1-8.7
	c4.4-23.2,9.4-45.8,14.9-67.8c5.5-22,9.9-44.7,13.2-67.8c0.5-3.3,0.1-6.5-1.2-9.5c-1.4-3-1.9-5.8-1.7-8.3c0.3-2.5,2.6-4.4,7-5.8
	c4.4-1.4,12.7-2.1,24.8-2.1c6.1,0,10.6,0.8,13.6,2.5c3,1.7,6.7,4.7,11.2,9.1c3.9,9.9,5.8,21,5.8,33.1c0,12.7-1,25.5-2.9,38.5
	c-1.9,13-3.7,25.8-5.4,38.5l-9.9,14.9c3.3,0,6.3-0.8,9.1-2.5v5c-4.9,8.3-9.5,20-13.6,35.1c-4.1,15.2-7.7,31.2-10.8,48
	c-3,16.8-5.4,33.2-7,49.2c-1.7,16-2.5,29.2-2.5,39.7l0.8,4.1l2.5-3.3l3.3-11.6l0.8,12.4c0,4.4-0.1,8.4-0.4,12
	c-0.3,3.6-0.7,7.6-1.2,12l-5,5.8l3.3-7.4l-1.7-5l-3.3,4.1l-11.6,57.1c0,4.4,0.1,8.6,0.4,12.4c0.3,3.9,0.7,8,1.2,12.4l0.8,0.8
	c3.8,0,5.9,1.7,6.2,5c0.3,3.3,0.4,8,0.4,14.1l-0.8,13.2l0.8,1.7c1.1,0,1.6-0.4,1.6-1.2c0-0.8,0.3-1.5,0.8-2.1l3.3,5.8l0.8,11.6
	l0.8,0.8c0.5,0,0.8-0.7,0.8-2.1c0-1.4,0.3-2.1,0.8-2.1l1.6,1.7c1.7,4.4,3.7,8.3,6.2,11.6c2.5,3.3,5.9,5.8,10.3,7.4l9.9-0.8
	c6.6-3.8,12.8-11.4,18.6-22.7c5.8-11.3,11-24.7,15.7-40.1c4.7-15.4,8.8-32.1,12.4-50c3.6-17.9,6.6-35.1,9.1-51.7
	c2.5-16.5,4.4-31.7,5.8-45.5c1.4-13.8,2.1-24.5,2.1-32.3l1.6-1.6v1.6c0.5,5,1.1,9.9,1.7,14.9c0.5,5,1.1,9.9,1.6,14.9v0.8
	c1.1,0,2.3-0.4,3.7-1.2c1.4-0.8,1.8-1.8,1.2-2.9l-0.8,7.4c-1.1-1.1-1.7-0.8-1.7,0.8s0.5,1.9,1.7,0.8l5,9.1V333l2.5,4.1
	c0.5,2.8,0.1,3.9-1.2,3.3c-1.4-0.5-2.1-0.3-2.1,0.8c0,5,0.3,10.1,0.8,15.3c0.5,5.2,1.4,10.3,2.5,15.3c-0.5,5-1.2,10.2-2.1,15.7
	c-0.8,5.5-1,10.7-0.4,15.7l1.6-5.8L1184.9,395.9z M925.2,417.4l-0.8-0.8l-0.8,0.8c0,0.6,0.3,1.1,0.8,1.7L925.2,417.4z M950,403.3
	c5.5-0.5,11.3-4.4,17.4-11.6c6.1-7.2,11.9-15.3,17.4-24.4c5.5-9.1,10.3-18.3,14.5-27.7c4.1-9.4,7-16.3,8.7-20.7l-1.6-0.8
	c3.3-11.6,6.1-24.4,8.3-38.5c2.2-14.1,3.3-27.4,3.3-40.1V233c-2.2-2.8-5-4.4-8.3-5c-3.3-0.5-6.3-0.8-9.1-0.8
	c-9.4,0-17.7,5.7-24.8,17c-7.2,11.3-13.4,24.4-18.6,39.3c-5.2,14.9-9.5,29.6-12.8,44.2c-3.3,14.6-5.8,25.2-7.4,31.8
	c1.6,7.2,3.2,14.8,4.5,22.7C942.7,390.2,945.6,397.3,950,403.3z M1017,491.8l-3.3-8.3c0-1.1-0.1-2.3-0.4-3.7
	c-0.3-1.4-0.4-2.6-0.4-3.7h-0.8l0.8,5.8c1.1,0.6,1.8,2.1,2.1,4.5c0.3,2.5,0.4,4.3,0.4,5.4l0.8,0.8L1017,491.8z M1069.9,358.7
	c0.5,0,0.8,0.3,0.8,0.8l0.8-0.8l-0.8-0.8L1069.9,358.7z M1093.9,180c0,1.7,0.3,2.8,0.8,3.3l1.7-0.8c0-1.7-0.3-2.8-0.8-3.3
	L1093.9,180z M1155.1,465.3l-2.5-4.1v-0.8l0.8-0.8v-0.8c-1.1,0-2.8,0.6-5,1.6l-5-1.6l-2.5-0.8c0-3.3,0.5-4.4,1.7-3.3
	c1.1,1.1,2.2,1.1,3.3,0v-1.7c1.1-5.5,1.9-10.9,2.5-16.1c0.5-5.2,1.6-10.6,3.3-16.1l4.1-3.3v0.8v0.8c0-2.8-0.8-4.4-2.5-5
	c-2.2,10.5-5.5,21.1-9.9,31.8c-4.4,10.8-8,21.6-10.7,32.7v0.8c0.5-1.1,1.1-2.3,1.6-3.7c0.5-1.4,0.5-2.6,0-3.7l4.1-0.8l2.5,0.8
	l1.7,4.1v-10.8l1.6-0.8L1155.1,465.3z M1136.9,490.2l2.5-8.3l-0.8-5c-2.8-1.1-3.6-0.8-2.5,0.8c1.1,1.6,1.9,3,2.5,4.1l-2.5,6.6v2.5
	L1136.9,490.2z M1139.4,505.9l-0.8-1.6l-1.6,5l0.8,0.8L1139.4,505.9z M1146,483.5h-0.8c-1.1,2.8-2.2,5.7-3.3,8.7
	c-1.1,3-2.2,5.9-3.3,8.7l1.6,1.7h0.8v-9.1L1146,483.5z M1149.3,475.3l-1.6-3.3l-1.7,5l0.8,2.5L1149.3,475.3z M1146.9,445.5l1.6,2.5
	l2.5-2.5c-0.5-0.5-1-1.1-1.2-1.7c-0.3-0.5-0.7-1.1-1.2-1.6L1146.9,445.5z M1149.3,440.5c0-1.1,0.3-1.9,0.8-2.5l-0.8-0.8l-0.8,2.5
	L1149.3,440.5z M1151.8,443l0.8-2.5l-0.8-2.5l-0.8,3.3L1151.8,443z M1152.6,454.6l1.6,1.7v-0.8c0-0.5-0.3-1.1-0.8-1.6L1152.6,454.6z
	 M1157.6,428.9l-2.5-4.1l-0.8-1.6v0.8l-0.8,8.3l0.8,2.5L1157.6,428.9z M1158.4,495.9l-4.1,8.3l0.8,1.6l4.1-9.1L1158.4,495.9z
	 M1155.1,413.2l0.8-1.7c0-0.5-0.3-1.1-0.8-1.7V413.2z M1155.1,446.3l0.8,3.3c0.5-1.1,0.8-1.9,0.8-2.5c0-0.5,0.3-1.4,0.8-2.5
	L1155.1,446.3z M1159.3,435.6l-1.6-2.5l-0.8,0.8c0.5,0.6,1,1.1,1.2,1.7c0.3,0.6,0.7,1.1,1.2,1.7V435.6z M1159.3,442.2l-2.5-1.7
	c0.5,1.1,0.8,2.5,0.8,4.1L1159.3,442.2z M1159.3,398.3v-1.6c-0.6,0.6-0.8,1-0.8,1.2c0,0.3-0.3,0.7-0.8,1.2l0.8,0.8L1159.3,398.3z
	 M1158.4,503.4l0.8,1.7l1.7-4.1l-0.8-0.8L1158.4,503.4z M1176.6,318.1c0.5-0.5,0.8-1.9,0.8-4.1v-0.8l-1.6,3.3L1176.6,318.1z
	 M1178.3,323.9c0.5-0.5,0.8-1.6,0.8-3.3V319l-1.6,0.8C1178,320.9,1178.3,322.3,1178.3,323.9z M786.1,949.5
	c18.7-3.9,36.1-10.6,52.1-20.3c16-9.6,29.2-24.1,39.7-43.4c4.4,7.2,5.4,13,2.9,17.4c-2.5,4.4-5.4,8.8-8.7,13.2
	c-19.8,25.4-41.6,43.6-65.3,54.6c-23.7,11-47.6,16.3-71.5,15.7c-24-0.6-47.3-6.2-69.9-17c-22.6-10.7-43-25.2-61.2-43.4
	c-49.6-49.6-75-109.4-76.1-179.4c-1.1-75,23.7-139.8,74.4-194.3c17.6-18.7,36.2-35.7,55.8-50.9c19.6-15.2,42-26.3,67.4-33.5
	c12.1-3.3,24.3-6.3,36.4-9.1c12.1-2.8,24.2-4.7,36.4-5.8c16-1.1,31.3,1.4,45.9,7.4c14.6,6.1,24.9,16.5,31,31.4
	c8.3,19.3,9.4,39.7,3.3,61.2c-1.1,0-2.3,0.3-3.7,0.8c-1.4,0.6-1.8,1.1-1.2,1.7v2.5c-0.6-0.5-1.1-0.8-1.7-0.8c-1.6,0-2.2,0.3-1.6,0.8
	c1.1,1.1,1.6,2.2,1.6,3.3v2.5c-0.6,0-0.8,0.3-0.8,0.8c-0.6,0.6-0.8,1.1-0.8,1.6v1.7H868c-1.7,0-1.9,0.6-0.8,1.7
	c0.5,0.6,0.8,1.4,0.8,2.5c0,0.6-0.3,0.8-0.8,0.8c-0.6,0-1.1,0.3-1.6,0.8c-0.6,0.6-0.8,1.4-0.8,2.5v3.3l-2.5,5l-2.5,3.3
	c-2.2,2.8-4.3,5.2-6.2,7.4c-1.9,2.2-4,4.4-6.2,6.6c-8.3,0-16.3-2.6-24-7.9c-7.7-5.2-14.3-11.2-19.8-17.8c-5.5-6.6-11.9-15.2-19-25.6
	c-34.7,17.1-64.5,39.7-89.3,67.8c-24.8,28.1-44.1,60.9-57.9,98.4c-7.2,18.7-12,37.4-14.5,55.8c-2.5,18.5-1.8,37.4,2.1,56.7
	c6.1,27,19.7,50,40.9,69.1c21.2,19,44,34.6,68.2,46.7c7.2,3.9,15.4,5.9,24.8,6.2C768.2,951.9,777.3,951.2,786.1,949.5z M576.1,589.8
	c5.5-7.2,12.1-15.2,19.8-24c6.6-7.7,14.9-16.1,24.8-25.2c9.9-9.1,22-18.6,36.4-28.5c-10.5,6.6-20.7,13.8-30.6,21.5
	c-8.3,6.6-17.1,14.8-26.5,24.4C590.7,567.6,582.7,578.2,576.1,589.8z M1114.4,759.3c0,0.6,0.3,1.4,0.8,2.5c0,1.1,0.1,1.9,0.4,2.5
	c0.3,0.6,0.4,1.4,0.4,2.5c-4.4,27-10.2,48.5-17.4,64.5c-7.2,16-13,26.2-17.4,30.6c-9.4,8.3-16.7,11.7-21.9,10.3
	c-5.2-1.4-9.4-5.4-12.4-12c-3-6.6-5-15.2-5.8-25.6c-0.8-10.5-1.5-20.7-2.1-30.6c-0.6-9.9-1.2-18.6-2.1-26
	c-0.8-7.4-2.1-11.7-3.7-12.8c-3.3-1.7-7.3-0.8-12,2.5c-4.7,3.3-9.2,7.7-13.6,13.2c-4.4,5.5-8,11.7-10.8,18.6
	c-2.8,6.9-4.1,13.1-4.1,18.6c0,11-0.1,22.1-0.4,33.1c-0.3,11-0.7,22.1-1.2,33.1c-0.6,7.7-1.2,15.2-2.1,22.3
	c-0.8,7.2-1.8,14.6-2.9,22.3c-14.3-0.5-26.3-4.4-36-11.6c-9.7-7.2-15.9-17.4-18.6-30.6c-2.8-11-4.8-22.3-6.2-33.9
	c-1.4-11.6-2.1-23.2-2.1-34.7c0.5-22,1.5-44.1,2.9-66.2c1.4-22,2.6-44.4,3.7-67c1.1-14.3,0.5-28.7-1.7-43
	c-2.2-14.3-5.8-27.6-10.7-39.7h18.2c9.9,1.1,18.3,3.9,25.2,8.3c6.9,4.4,11.7,12.1,14.5,23.2c5,19.3,8.1,38.6,9.5,57.9
	c1.4,19.3,2.1,38.6,2.1,57.9c0,2.8,0.1,5.5,0.4,8.3c0.3,2.8,0.7,5.5,1.2,8.3c3.8-7.7,9.9-13.9,18.2-18.6c8.3-4.7,17.1-7,26.5-7
	c11,0,18.3,3.5,21.9,10.3c3.6,6.9,5.4,15.9,5.4,26.9c0,12.7,0.3,25.5,0.8,38.5c0.5,13,1.1,25.8,1.7,38.5c0,2.2,1.4,3.9,4.1,5
	c4.4,0,11.4-9.1,21.1-27.3C1098,813.9,1106.7,789.7,1114.4,759.3z M1191.3,689c-1.6,0-4.7,0.4-9.1,1.2c-4.4,0.8-7.7,2.3-9.9,4.5
	c-1.1,1.1-2.5,1.9-4.1,2.5c-1.7,0.6-3.5,2.1-5.4,4.5c-1.9,2.5-4,6.1-6.2,10.7c-2.2,4.7-4.4,11.5-6.6,20.3c-5,17.7-7.6,34.2-7.9,49.6
	c-0.3,15.4-0.4,24.3-0.4,26.5c0,1.1,0.3,2.9,0.8,5.4c0.5,2.5,1.1,4.7,1.7,6.6c0.5,1.9,1.2,3.3,2.1,4.1c0.8,0.8,1.8-0.1,2.9-2.9
	c1.1-2.2,2.5-6.3,4.1-12.4c1.6-6.1,3.3-12.3,5-18.6c1.6-6.3,3.2-12.3,4.5-17.8c1.4-5.5,2.6-9.1,3.7-10.8c3.3-6.1,6.1-11.3,8.3-15.7
	c2.2-4.4,7.7-9.1,16.5-14.1c2.8-1.7,6.9-2.9,12.4-3.7c5.5-0.8,8.5,1,9.1,5.4c0,2.2-0.1,5.5-0.4,9.9c-0.3,4.4-0.6,8.8-0.8,13.2
	c-0.3,4.4-0.7,8.7-1.2,12.8c-0.6,4.1-0.8,7-0.8,8.7s0.3,5,0.8,9.9c0.5,5,1.4,10.2,2.5,15.7c1.1,5.5,2.2,10.7,3.3,15.7
	c1.1,5,2.2,7.7,3.3,8.3c2.2,1.6,4.7,0.7,7.4-2.9c2.8-3.6,5.6-8.3,8.7-14.1c3-5.8,5.8-11.9,8.3-18.2c2.5-6.3,4.5-11.7,6.2-16.1
	c3.3-8.8,6.7-17.4,10.3-25.6c3.6-8.3,6.6-15,9.1-20.3c2.5-5.2,4.5-8.1,6.2-8.7c1.6-0.5,2.5,2.8,2.5,9.9
	c-5.5,19.8-11.3,37.8-17.4,53.8c-5,13.8-10.1,26.6-15.3,38.5c-5.2,11.9-10.1,19.2-14.5,21.9c-8.8,5-16.3,5.5-22.3,1.7
	c-6.1-3.8-10.5-9.1-13.2-15.7c-1.1-2.7-2.2-7.3-3.3-13.6c-1.1-6.3-2.2-12.5-3.3-18.6c-1.6-7.2-3-14.6-4.1-22.3
	c-3.9,14.3-7.7,27.8-11.6,40.5c-3.3,11-6.6,21.6-9.9,31.8c-3.3,10.2-6.1,17.2-8.3,21.1c-2.2,4.4-5.2,7.9-9.1,10.3
	c-3.9,2.5-7.9,4-12,4.5c-4.1,0.6-8,0-11.6-1.7c-3.6-1.7-5.9-4.7-7-9.1c-2.2-8.8-4.7-24.5-7.4-47.1c-2.8-22.6-2.5-48.5,0.8-77.7
	c1.7-14.3,5.8-26.6,12.4-36.8c6.6-10.2,13.8-18.5,21.5-24.8c7.7-6.3,15.3-10.9,22.7-13.6c7.4-2.8,13.4-3.8,17.8-3.3
	c6.6,0.6,9.9,3.3,9.9,8.3C1193,683,1192.4,685.7,1191.3,689z M1677.9,780.8c1.1,0,0.9,0.3-0.4,0.8c-1.4,0.6-2.1,3-2.1,7.4
	c0,7.2,0.1,16.8,0.4,28.9c0.3,12.1,1.5,21.5,3.7,28.1l-3.3,5l-2.5,1.7c-8.3,28.1-23,54.6-44.3,79.4c-21.2,24.8-45.9,46.4-74,64.9
	c-28.1,18.5-57.9,33.1-89.3,43.8s-61.5,16.1-90.1,16.1c-30.3,0-54.9-7-73.6-21.1c-18.7-14.1-28.1-37.1-28.1-69
	c0-13.2,1.5-26.1,4.5-38.5c3-12.4,6.5-24.7,10.3-36.8c3.8-12.1,7.3-24.1,10.3-36c3-11.9,4.5-24.1,4.5-36.8c0-12.1-2.2-21.6-6.6-28.5
	c-4.4-6.9-9.9-12.5-16.5-17c-6.6-4.4-13.8-8.3-21.5-11.6c-7.7-3.3-14.9-7.6-21.5-12.8c-6.6-5.2-12.1-12.1-16.5-20.7
	c-4.4-8.5-6.6-20-6.6-34.3c0-9.4,1.7-18.3,5-26.9c3.3-8.5,6.6-17,9.9-25.2l11.6-7.4c14.9-1.7,30-2.5,45.5-2.5c11,0,18,3.4,21.1,10.3
	c3,6.9,4.5,15,4.5,24.4c0,27.6-9.9,49.9-29.8,67c0,7.2,2.2,12.4,6.6,15.7c4.4,3.3,10.1,5.9,17,7.9c6.9,1.9,14.3,4,22.3,6.2
	c8,2.2,15.4,6.2,22.3,12c6.9,5.8,12.5,13.9,17,24.4c4.4,10.5,6.6,25.1,6.6,43.8c0,9.9-2.8,17.9-8.3,24l-1.6,5.8l0.8,6.6
	c0,3.3-1,8.3-2.9,14.9c-1.9,6.6-4,13.6-6.2,21.1c-2.2,7.4-4.3,15-6.2,22.7c-1.9,7.7-3.2,14.9-3.7,21.5c-2.8,5.5-4.1,12.4-4.1,20.7
	c0,13.8,3.8,25.9,11.6,36.4c6.1,1.6,11.7,3.4,17,5.4c5.2,1.9,10.6,4,16.1,6.2l3.3,5c2.8,1.1,5.2,1.6,7.4,1.6c2.2,0,4.7,0,7.4,0
	c15.4,0,30.6-2.5,45.5-7.4c14.9-5,29.1-11.6,42.6-19.8c13.5-8.3,26.3-17.7,38.5-28.1c12.1-10.5,23.2-21.2,33.1-32.2
	c1.6-1.7,3.9-4,6.6-7c2.7-3,5.6-6.3,8.7-9.9c3-3.6,5.8-7,8.3-10.3c2.5-3.3,4-5.8,4.5-7.4c-1.7,1.1-4.1,3.3-7.4,6.6
	c7.2-9.9,13.6-19.3,19.4-28.1c5.8-8.8,10.6-17.6,14.5-26.5c3.9-8.8,6.9-18.3,9.1-28.5c2.2-10.2,3.3-21.9,3.3-35.1
	c0-13.8-0.3-24.9-0.8-33.5c-0.6-8.5-1.7-16.1-3.3-22.7c-1.6-6.6-4.3-13.6-7.9-21.1c-3.6-7.4-8.4-17.2-14.5-29.4
	c-2.8-6.1-7.4-11.7-14.1-17c-6.6-5.2-12.1-11.7-16.5-19.4c12.1,1.1,23.2,6.8,33.1,17c9.9,10.2,19,22.1,27.3,35.6
	c8.3,13.5,15.3,27.4,21.1,41.8c5.8,14.3,10.6,26.5,14.5,36.4L1677.9,780.8z M1247,732v0.8h0.8L1247,732z M1267.7,703.9l5,19l2.5,0.8
	c14.9-16,22.3-34.2,22.3-54.6c0-3.8-2.2-8-6.6-12.4c-4.4-4.4-8.3-6.6-11.6-6.6c-3.9,0-6.1,1.5-6.6,4.5c-0.6,3-0.3,5.9,0.8,8.7
	c-1.1,6.6-2.1,13.4-2.9,20.3C1269.7,690.6,1268.8,697.3,1267.7,703.9z M1287.5,760.2l1.7,0.8l0.8-0.8c-0.6-0.5-1.1-0.8-1.6-0.8
	L1287.5,760.2z M1314,911.5v-0.8l-0.8-0.8c0,0.6-0.1,0.8-0.4,0.8c-0.3,0-0.4,0.3-0.4,0.8H1314z M1316.5,895l1.6,1.7l1.7-0.8
	l-1.7-1.7L1316.5,895z M1319.8,785l-1.7,0.8c1.1,1.6,2.5,4,4.1,7c1.7,3,2.8,5.1,3.3,6.2c0,0.6,0.4,1.2,1.2,2.1
	c0.8,0.8,1,1.2,0.4,1.2l-1.7-3.3L1319.8,785z M1328.9,851.1h0.8c-0.6,0-0.8-0.3-0.8-0.8V851.1z M1646.4,834.6l1.6-1.7v-0.8h-1.6
	V834.6z M1396.7,666c-2.8,5-5.1,9.1-7,12.4c-1.9,3.3-3.7,6.6-5.4,9.9c-3.3,6.6-5.4,15.4-6.2,26.5c-0.8,11,1,20.8,5.4,29.4
	c4.4,8.6,12,14.1,22.7,16.5c10.8,2.5,26.3-1.5,46.7-12c5-3.8,11.3-9.8,19-17.8c7.7-8,15.4-16,23.2-24c7.7-8,14.6-15.2,20.7-21.5
	c6.1-6.3,9.9-9.5,11.6-9.5c1.6,3.3,2.5,5.2,2.5,5.8c-6.6,9.9-13.2,19.7-19.8,29.4c-6.6,9.7-13.5,19.2-20.7,28.5
	c-17.1,24.3-35.6,38.2-55.4,41.8c-19.9,3.6-38,2.4-54.6-3.7c-17.1-6.1-29.9-16.4-38.5-31c-8.6-14.6-11.4-29.4-8.7-44.2
	s7.3-29.2,13.6-43c6.3-13.8,15.8-25.9,28.5-36.4c13.8-11.6,29.5-15.7,47.1-12.4c9.9,2.2,17.5,8,22.7,17.4c5.2,9.4,6.2,19,2.9,28.9
	c-2.8,9.4-8.6,16.3-17.4,20.7c-8.8,4.4-17.9,4.4-27.3,0C1401.4,677,1399.5,673.1,1396.7,666z M1597.7,613.9c2.2,1.7,4.7,4.3,7.4,7.9
	c2.8,3.6,5.4,9,7.9,16.1c2.5,7.2,4.4,16.3,5.8,27.3c1.4,11,1.8,24.8,1.2,41.3c0,7.7-0.8,16.7-2.5,26.9c-1.7,10.2-4,20.1-7,29.8
	c-3,9.7-6.5,18.2-10.3,25.6c-3.9,7.4-8,12.3-12.4,14.5c-4.4,2.2-9.5,3.3-15.3,3.3c-5.8,0-11.4-1.1-16.9-3.3
	c-5.5-2.2-10.3-5.1-14.5-8.7c-4.1-3.6-7-7.9-8.7-12.8c-2.8-9.9-5-21.9-6.6-36c-1.7-14.1-1.9-26.6-0.8-37.6c0-10.5-0.8-18.7-2.5-24.8
	c-1.1-3.3-2.2-6.1-3.3-8.3c-0.6-7.7,0-15.2,1.7-22.3c1.1-6.1,2.9-12.1,5.4-18.2c2.5-6.1,6.2-10.5,11.2-13.2l0.8-0.8
	c3.9-5,9.9-9.6,18.2-14.1h0.8c4.4-2.2,10.3-3,17.8-2.5C1582.4,604.5,1590,607.8,1597.7,613.9z M1565.4,619.6
	c-2.2,1.1-3.6,1.9-4.1,2.5c4.4,3.3,7.7,5.7,9.9,7c2.2,1.4,1.9,3.4-0.8,6.2c-5,5-7.4,8.8-7.4,11.6v13.2c5,0.6,10.6,0.6,17,0
	c6.3-0.5,13.1-1.7,20.3-3.3c-0.6-5.5-1.2-10.5-2.1-14.9c-0.8-4.4-2.6-8-5.4-10.7c-3.3-4.4-7.6-7.6-12.8-9.5
	C1574.7,619.8,1569.8,619.1,1565.4,619.6z M1598.5,707.3c0-5,0.3-10.9,0.8-17.8c0.5-6.9,0.8-13.6,0.8-20.3
	c-6.6,1.7-13.1,3.2-19.4,4.5c-6.3,1.4-12.5,1.8-18.6,1.2c0,9.4-0.1,19-0.4,28.9c-0.3,9.9-0.4,17.9-0.4,24c0,9.9,1.5,19.2,4.5,27.7
	c3,8.6,5.1,14.2,6.2,17c1.1,2.8,2.8,3.6,5,2.5c2.2-1.1,3.6-3,4.1-5.8c0-1.1,1-4,2.9-8.7c1.9-4.7,3.8-10,5.8-16.1
	c1.9-6.1,3.8-12.4,5.8-19C1597.6,718.9,1598.5,712.8,1598.5,707.3z M1730.8,628.7c-1.7,0-4.7,0.4-9.1,1.2c-4.4,0.8-7.7,2.3-9.9,4.5
	c-1.1,1.1-2.5,1.9-4.1,2.5c-1.6,0.6-3.4,2.1-5.4,4.5c-1.9,2.5-4,6.1-6.2,10.7c-2.2,4.7-4.4,11.5-6.6,20.3c-5,17.7-7.6,34.2-7.9,49.6
	c-0.3,15.4-0.4,24.3-0.4,26.5c0,1.1,0.3,2.9,0.8,5.4c0.5,2.5,1.1,4.7,1.6,6.6c0.5,1.9,1.2,3.3,2.1,4.1c0.8,0.8,1.8-0.1,2.9-2.9
	c1.1-2.2,2.5-6.3,4.1-12.4c1.6-6.1,3.3-12.3,5-18.6c1.6-6.3,3.2-12.3,4.5-17.8c1.4-5.5,2.6-9.1,3.7-10.8c3.3-6.1,6.1-11.3,8.3-15.7
	c2.2-4.4,7.7-9.1,16.5-14.1c2.8-1.7,6.9-2.9,12.4-3.7c5.5-0.8,8.5,1,9.1,5.4c0,2.2-0.1,5.5-0.4,9.9c-0.3,4.4-0.6,8.8-0.8,13.2
	c-0.3,4.4-0.7,8.7-1.2,12.8c-0.6,4.1-0.8,7-0.8,8.7s0.3,5,0.8,9.9c0.5,5,1.4,10.2,2.5,15.7c1.1,5.5,2.2,10.7,3.3,15.7
	c1.1,5,2.2,7.7,3.3,8.3c2.2,1.6,4.7,0.7,7.4-2.9c2.8-3.6,5.7-8.3,8.7-14.1c3-5.8,5.8-11.9,8.3-18.2c2.5-6.3,4.5-11.7,6.2-16.1
	c3.3-8.8,6.7-17.4,10.3-25.6c3.6-8.3,6.6-15,9.1-20.3c2.5-5.2,4.5-8.1,6.2-8.7c1.7-0.5,2.5,2.8,2.5,9.9
	c-5.5,19.8-11.3,37.8-17.4,53.8c-5,13.8-10.1,26.6-15.3,38.5c-5.2,11.9-10.1,19.2-14.5,21.9c-8.8,5-16.3,5.5-22.3,1.7
	c-6.1-3.8-10.5-9.1-13.2-15.7c-1.1-2.7-2.2-7.3-3.3-13.6c-1.1-6.3-2.2-12.5-3.3-18.6c-1.6-7.2-3-14.6-4.1-22.3
	c-3.9,14.3-7.7,27.8-11.6,40.5c-3.3,11-6.6,21.6-9.9,31.8c-3.3,10.2-6.1,17.2-8.3,21.1c-2.2,4.4-5.2,7.9-9.1,10.3s-7.8,4-12,4.5
	c-4.1,0.6-8,0-11.6-1.7c-3.6-1.7-5.9-4.7-7-9.1c-2.2-8.8-4.7-24.5-7.4-47.1c-2.8-22.6-2.5-48.5,0.8-77.7
	c1.6-14.3,5.8-26.6,12.4-36.8c6.6-10.2,13.8-18.5,21.5-24.8c7.7-6.3,15.3-10.9,22.7-13.6c7.4-2.8,13.4-3.8,17.8-3.3
	c6.6,0.6,9.9,3.3,9.9,8.3C1732.5,622.7,1731.9,625.4,1730.8,628.7z M1860.7,597.3c0.5,5.5,0.5,12.1,0,19.9
	c-0.5,7.7-1.6,18.2-3.3,31.4c-1.7,13.8-3.2,25.1-4.5,33.9c-1.4,8.8-2.6,14.6-3.7,17.4c-0.6,2.2-1.2,6.5-2.1,12.8
	c-0.8,6.3-1.2,10.3-1.2,12c0,1.7,0.3,4.3,0.8,7.9c0.5,3.6,0.3,5.9-0.8,7c-1.1,1.1-1.9,1.4-2.5,0.8c-0.6-0.5-0.3-0.3,0.8,0.8
	c1.6,1.7,2.5,2.8,2.5,3.3c-0.5,1.1-1.2,3.4-2.1,7c-0.8,3.6-0.7,5.4,0.4,5.4c1.6,0,2.8,0,3.3,0c0.5,0,0.8,0.8,0.8,2.5s0,3.9,0,6.6
	c0,2.8,0.3,4.7,0.8,5.8c0.5,1.1,1.1,1.8,1.6,2.1c0.5,0.3,0.8,1,0.8,2.1c0,1.1-0.3,2.6-0.8,4.5c-0.5,1.9-0.3,3.4,0.8,4.5
	c1.1,0.6,3.3-0.3,6.6-2.5c3.3-2.2,6.3-3.9,9.1-5c3.3-1.1,7.3-2.9,12-5.4s8.4-4.8,11.2-7c2.8-1.6,5.1-3.7,7-6.2s3.4-3.7,4.5-3.7
	c1.1-0.5,1.8-0.3,2.1,0.8c0.3,1.1-0.1,2.5-1.3,4.1c-0.5,1.1-2.2,3.7-5,7.9c-2.8,4.1-6.2,8.7-10.3,13.6c-4.1,5-8.3,9.7-12.4,14.1
	c-4.1,4.4-7.6,7.2-10.3,8.3c-6.1,2.2-10.9,4.7-14.5,7.4c-3.6,2.8-6.8,4.7-9.5,5.8c-1.6,0.6-3.9,1.2-6.6,2.1
	c-2.8,0.8-5.7,1.5-8.7,2.1c-3,0.6-5.7,0.6-7.8,0c-2.2-0.5-3.6-1.9-4.1-4.1c-0.6-2.2-1-6.3-1.3-12.4c-0.3-6.1-0.5-13.1-0.8-21.1
	c-0.3-8-0.5-16.5-0.8-25.6c-0.3-9.1-0.4-17.5-0.4-25.2c0-7.7,0.1-19.2,0.4-34.3c0.3-15.2,0.5-30.7,0.8-46.7c0.3-16,0.8-31,1.7-45.1
	c0.8-14.1,1.5-24.1,2.1-30.2c0.5-5.5,1.2-11.7,2.1-18.6c0.8-6.9,1.7-13.4,2.5-19.4c0.8-6.1,1.8-11.2,2.9-15.3
	c1.1-4.1,2.2-6.8,3.3-7.9c2.8-2.2,7.6-3.3,14.5-3.3c6.9,0,11.7,1.7,14.5,5c1.1,1.7,1.9,6.8,2.5,15.3c0.5,8.6,1.1,17.5,1.6,26.9
	C1860.4,570.3,1860.7,583,1860.7,597.3z"/>
</svg>
